<svg id="Logo_1_" width="256px" height="256px" enable-background="new 0 0 256 256" version="1.1" viewBox="0 0 256 256" xml:space="preserve" xmlns="http://www.w3.org/2000/svg"><path d="m40 37c-3.21 0.644-14.8 3.47 9.81 33.6 5.28 6.45 10.8 12.3 16.4 17.8l13.6 26.8c-11.1 5.72 0.355 26.2 12.8 24.3 9.34-1.47 6.49-12.8 0-19.7v0.0921c-2.2-2.33-4.69-4.96-7.42-5.66-0.725-1.96-1.56-3.96-2.58-5.96l0.103 0.115c-1.94-3.83-4.43-7.64-6.97-11.1 6.54 5.79 13.1 11.1 19.7 16.3l7.97 28.6c-2.7 4.12-5.14 12.1-0.988 26.3 7 24.4 14.7 27 14.7 27s0.182-2e-3 0.447-2.44l0.198 0.712c9e-5 0-0.0797-1.29-0.0988-1.68 0.308-3.37 0.71-10.1 1.09-23.6 0.476-16.9-5.92-25.3-9.35-28.5-3.01-9.79-7.21-18.1-10.5-23.7 7.61 5.99 15.1 11.8 22.2 17.8l3.12 11.2c-8.03 2-0.405 17.3 6.37 16.9 5.57-0.224 5.48-15.8-3.29-17-1.08-3.21-2.54-6.43-3.9-9.14 2.76 2.38 5.48 4.78 8.09 7.25 4.45 4.2 8.65 8.28 12.7 12.2-0.344 1.18-0.596 2.83-0.454 5.06-0.293-0.109-0.492-0.173-0.492-0.173s-8.94 5.45 1.54 18.5c0.0564 0.677 0.0898 1.07 0.0898 1.07l17.9 21.3c0-2.7e-4 0.115-1.06 0.205-2.7 0.0222 0.0315 0.25 0.361 0.25 0.361l-0.234-0.599c0.282-5.6 0.212-17.9-5.07-25.7-2.91-4.15-5.9-6.96-8.44-8.83l-1.96-4.99c10.4 10.4 18.9 19.6 24.5 25.7l0.342 2.8c-0.265-0.179-0.434-0.281-0.434-0.281s-4.88 2.21-2.45 13.9 3.09 13.7 4.9 16.3c1.82 2.62 6.95-4.23 6.53-14.7h0.0112c-0.314-8.18-5.57-13-7.88-14.7-0.312-1.25-0.589-2.32-0.791-3.04 4.75 5.23 7.45 8.39 7.45 8.39s-2.68-4.57-7.79-11.7c3.11 3.43 7.14 7.8 11.6 12.3-0.71 0.63-0.891 1.45-0.891 1.45s-1.76 9.88 4.08 14.7c5.84 4.84 25.3 8.99 25.3 8.99-0.0301-0.0159-0.0152-0.487-0.514-1.59 0.117 0.0873 0.571 0.429 0.571 0.429l-0.643-0.596c-1.08-2.28-4.34-7.14-14.5-16.9l0.0584-0.0112c-2.85-2.75-5.12-4.5-6.97-5.6 1.39 0.589 2.93 1.18 4.78 1.77 17.5 5.65 22.1 1.63 22.1 1.63s-3.04-4.43-16.3-13.9l-0.115 9e-3c-8.97-6.37-14.4-3.81-16.9-1.44-6.76-2.55-10.7-3.04-12.5-3.07l-1.35-1.25c-5.12-6.96-12.2-15.8-20.9-25.1l20.1 3.27c6.87 5.41 16.1 12.2 20.4 13 7.13 1.27 31.1-4.09 31.1-4.09s-0.715-0.424-1.21-0.721l0.403 0.0651c-3e-5 -3e-5 -0.545-0.163-0.591-0.177-3.06-1.82-12.8-7.13-28.9-11.5v0.0112c-19.6-5.25-29.4-3.28-29.4-3.28s0.508 0.423 0.582 0.485c-7.65-0.897-12.2-0.239-14.7 0.58-2.94-3.06-6.06-6.15-9.37-9.26l0.0697-0.0337c-8.09-7.59-17.4-15.2-26.8-22.7l22.9 9.42c-0.878 8.91 20.5 21.5 25.8 13 7.35-11.7-20.1-23.2-25.1-15.1-3.08-1.46-6.27-2.9-9.44-4.21-6.45-2.67-12.8-4.54-17.5-5.74-8.35-6.59-16.8-13.1-24.6-19.6l28.6 8.26c2.4 2.99 9.03 10.4 17.7 13.3 6.1 2.07 11.4 2.29 17.1 2.45 1.66 0.0472 3.95 3.19 5.73 3.27 2.27 0.108 3.95-2.85 5.27-2.94 2.32-0.154 6.99-1.15 6.99-1.15 0.0195-0.0126-5.82-6.57-19.9-11.8l0.0697 0.0921c-8.43-3.15-21.3-7.76-39.1-11.1-0.403-0.122-0.833-0.263-1.23-0.38l0.115 0.0224c-4.37-1.28-8.18-2.04-11.5-2.45l33.7-2.43c9.83 2.57 20.2 3.91 21.2 3.66 1.07-0.266-0.818-4.91-0.818-4.91s1.86 1.1 6.54 1.63c5.82 0.673 14.7 0.818 14.7 0.818s0.266-1.77-1.46-4.11l1.03-0.0742s-1.07-0.177-1.27-0.212c-2.98-3.74-11.1-8.74-33.5-10.3l0.0247-0.0022c-11.3-0.789-18.2 3.43-20.8 5.48-1.13 0.0422-2.25 0.0848-3.32 0.162-16.6 1.2-25.9 6.74-29.8 9.65-9.75-8.16-18.5-16.2-24.8-24-8.82-10.8-17.4-22.3-7.36-27.8 0.688-0.382-5.45-5.13-6.54-4.91zm132 144 9.79 3.8c-0.184 0.276-0.281 0.454-0.281 0.454s-2.96 3.85 5.45 8.34c-0.65-0.193-1.21-0.277-1.69-0.269l-13.2-12.3z"/></svg>
