<svg width="170px" height="170px" version="1.1" viewBox="0 0 170 170" xmlns="http://www.w3.org/2000/svg"><path d="m150 130c-2.45 5.66-5.35 10.9-8.71 15.7-4.58 6.53-8.33 11-11.2 13.6-4.48 4.12-9.28 6.23-14.4 6.35-3.69 0-8.14-1.05-13.3-3.18-5.2-2.12-9.97-3.17-14.3-3.17-4.58 0-9.49 1.05-14.7 3.17-5.26 2.13-9.5 3.24-12.7 3.35-4.93 0.21-9.84-1.96-14.7-6.52-3.13-2.73-7.04-7.41-11.7-14-5.03-7.08-9.17-15.3-12.4-24.6-3.47-10.1-5.21-19.9-5.21-29.4 0-10.9 2.35-20.2 7.04-28.1 3.69-6.3 8.61-11.3 14.8-14.9s12.8-5.51 19.9-5.63c3.92 0 9.05 1.21 15.4 3.59 6.36 2.39 10.4 3.6 12.2 3.6 1.34 0 5.88-1.42 13.6-4.24 7.28-2.62 13.4-3.7 18.4-3.28 13.6 1.1 23.9 6.47 30.7 16.2-12.2 7.39-18.2 17.7-18.1 31 0.11 10.3 3.86 18.9 11.2 25.8 3.34 3.17 7.07 5.62 11.2 7.36-0.9 2.61-1.85 5.11-2.86 7.51zm-31.3-123c0 8.1-2.96 15.7-8.86 22.7-7.12 8.32-15.7 13.1-25.1 12.4-0.119-0.972-0.188-2-0.188-3.07 0-7.78 3.39-16.1 9.4-22.9 3-3.45 6.82-6.31 11.4-8.6 4.62-2.25 8.99-3.5 13.1-3.71 0.12 1.08 0.17 2.17 0.17 3.24z" fill="#fff"/></svg>
