<svg width="312" height="312" version="1.0" viewBox="0 0 312 312" xmlns="http://www.w3.org/2000/svg"><path d="m198 300c-5.75-1.89-11.4-6.84-13.7-12.1-1.04-2.36-1.5-2.75-3.22-2.75-1.1-4e-3 -7.16-0.594-13.5-1.31-6.74-0.766-13.1-1.14-15.4-0.916-7.67 0.755-23.6 3.63-23.8 4.3-0.489 1.39-4.37 5.35-6.68 6.8-8.43 5.32-22.1 4.71-35.9-1.61-7.59-3.47-10.9-4.32-24.3-6.28-13-1.9-17.6-3.61-20.1-7.43-2.66-4.01-2.67-6.88-0.0592-18.2 0.614-2.68 0.604-5.09-0.0466-11.1-1.08-10.1-0.435-13 3.81-17.2 2.18-2.17 4.62-3.65 8.94-5.43 6.25-2.58 7.56-3.66 13-10.7l3.06-3.97v-7.57c0-5.86 0.36-8.99 1.59-13.8 4.11-16.2 12.9-32.8 27.7-52.1 7.92-10.3 10.3-14.1 12.7-20.1 4.05-10.1 4.22-11.6 4.25-37.1 0.0259-22 0.106-23.5 1.49-28.5 2.28-8.17 5.05-13.2 9.92-18 7.32-7.27 15.2-10.2 29.2-10.9 24.8-1.2 38.8 11.2 43.3 38 0.594 3.6 1.15 12.8 1.38 22.7 0.259 11.3 0.692 18 1.35 20.6 1.98 8.05 6.31 15.2 17.9 29.8 15.6 19.6 23.5 34.2 26.9 50 1.63 7.42 1.73 19.3 0.222 25.9-0.593 2.61-0.976 4.81-0.851 4.88 5.26 3.34 7.5 7.09 9.8 16.4 0.981 3.97 2.13 6.77 3.63 8.84 7.29 10.1 8.7 13.3 7.82 18-0.827 4.41-4.49 7.49-16.6 13.9-10.3 5.47-11.4 6.26-18.6 13.1-7.49 7.13-12.3 10.6-18.3 13-3.87 1.56-13.1 1.99-16.8 0.787zm16.3-3.05c5.46-2.04 9.09-4.6 16.2-11.5 7.6-7.33 10.9-9.67 20.3-14.4 10.2-5.1 13-7.17 14.5-10.5 2.02-4.57 1.02-7.68-5.05-15.7-2.95-3.88-3.8-5.69-5.56-11.8-2.59-8.98-3.89-11.6-7.01-13.9-1.35-1.01-2.63-2.06-2.83-2.33-0.201-0.271 0.183-3.07 0.853-6.23 1.57-7.39 1.21-19.5-0.805-27.7-3.39-13.7-11.7-28.6-26-46.6-11.4-14.4-15.2-20.4-17.8-28.9-1.14-3.71-1.41-6.82-1.75-20.3-0.217-8.76-0.692-18.4-1.05-21.5-2.5-21.1-11.1-33.8-26-38.2-3.48-1.03-6.25-1.29-13.2-1.26-14.4 0.0652-23.3 3.18-30.4 10.6-8.97 9.41-11.9 22.9-10.4 47.9 1.05 17.2-0.474 26.8-6.09 38.3-1.58 3.24-4.57 8.11-6.64 10.8-9.26 12.1-11.7 15.4-15.4 21.1-2.18 3.34-5.95 10.1-8.39 15-7.07 14.2-9.86 24.4-9.88 36.2l-0.0114 7.13-4.89 6.07c-4.99 6.2-6.93 7.58-14.3 10.2-3.05 1.08-7.32 4.62-8.64 7.17-1.06 2.05-1.21 7.95-0.396 15.3 0.515 4.64 0.334 6.4-1.49 14.6-1.38 6.22-0.709 9.55 2.49 12.3 3.04 2.65 5.15 3.24 18.6 5.23 12.2 1.79 15.8 2.76 24.1 6.47 8.25 3.66 15.2 5.2 21.7 4.79 8.15-0.509 12.5-3.05 18.6-10.8 0.352-0.45 1.36-0.819 2.24-0.819s6.09-0.737 11.6-1.64c11.4-1.87 15.7-1.98 25.4-0.655 3.78 0.518 9.24 0.954 12.1 0.969l5.24 0.0276 1.76 3.76c3.07 6.56 8.5 10.9 14.9 11.9 4.06 0.642 9.55 0.108 13.3-1.29zm-14.6-1.2c-4.86-1.6-8.68-4.96-11.1-9.72-1.03-2.05-1.38-3.98-1.38-7.53 6e-3 -4.6 0.706-7.98 4.87-23.4 0.995-3.7 1.96-9.81 2.39-15.1 1.27-15.7 3.19-22.4 7.32-25.9 2.12-1.79 3.06-1.37 3.1 1.36 0.0516 4.12 5.73 11.6 9.55 12.5 4.44 1.12 11.8-1.38 17.8-6.07 3.96-3.07 6.82-3.59 11-1.97 4.87 1.88 6.16 3.8 8.69 12.9 2.21 7.95 2.61 8.83 6.39 13.7 3.39 4.4 5.54 8.57 5.54 10.8 0 2.98-3.47 5.84-13.6 11.2-12.5 6.59-13.7 7.47-21.6 15.3-5.38 5.32-7.65 7.06-12.1 9.27-4.6 2.28-6.28 2.76-10.4 2.99-2.69 0.15-5.62 0.0293-6.53-0.269zm-102-3.98c-2.53-0.663-7.3-2.42-10.6-3.91-7.52-3.39-13.2-4.85-24.4-6.27-13.8-1.76-17.2-3.14-18.4-7.5-0.541-2.01-0.461-3.66 0.361-7.37 0.582-2.63 1.29-5.93 1.58-7.32 0.288-1.4 0.271-4.49-0.0373-6.88-1.06-8.21-0.77-13.4 0.885-15.9 1.46-2.19 2.43-2.77 12.3-7.37 4.3-2.01 5.35-2.87 8.43-6.92 1.93-2.54 4.66-5.66 6.06-6.92 2.29-2.07 2.92-2.3 6.35-2.3 3.05 0 4.38 0.368 6.73 1.86 4.24 2.69 5.65 4.63 13 17.9 4.25 7.68 8.65 14.6 12.3 19.2 11.4 14.5 14.5 20.5 13.8 26.6-1.38 11.7-13.1 17.1-28.3 13.1zm41.9-21.6c-5.51-1.59-11.5-4.43-13.6-6.51-1.98-1.88-7.93-9.93-7.55-10.2 0.126-0.0908 1.47-0.52 2.98-0.954 4.98-1.43 6.6-5.54 4.49-11.4-2.15-6.04-9.54-13.8-19.6-20.7-9.03-6.14-12.9-9.77-15.3-14.3-6.13-11.6-3.82-26.7 7.07-46.4 2.2-3.96 4.43-7.65 4.97-8.19 0.944-0.95-0.589 2.61-6.24 14.5-5.95 12.5-6.96 25.3-2.71 34.5 1.19 2.59 2.42 4.7 2.73 4.7 0.307 0 0.559-0.958 0.561-2.13 0.0052-4.1 1.99-14.3 4-20.6 1.12-3.49 4.94-12.9 8.5-20.9 3.56-7.99 7.52-17.3 8.8-20.6 2.8-7.34 6.02-19.2 6.62-24.4 0.239-2.07 0.583-3.77 0.765-3.77s3.21 2.18 6.73 4.84c3.52 2.66 7.48 5.2 8.81 5.64 4.04 1.33 10.7 0.592 15.1-1.69 2.13-1.09 6.9-3.53 10.6-5.4 3.7-1.88 7.86-4.43 9.23-5.68l2.51-2.26 3.12 9.65c4.36 13.5 8.01 22.5 15.9 39.1 7.5 15.8 10.6 23.7 12.4 31.2 0.63 2.7 1.32 5.12 1.54 5.37 0.218 0.252 1.63 0.654 3.13 0.894 2.73 0.436 2.73 0.434 3.44-2.1 1.24-4.48 0.883-15.9-0.661-21-1.97-6.47-6.63-15-11.1-20.2-2.12-2.5-3.74-4.66-3.61-4.79 1.03-1.03 8.23 7.29 12.3 14.3 6.13 10.4 8.63 19.6 8.11 29.6l-0.329 6.36 4.36 2.39c8.83 4.84 12.1 8.63 11.8 13.5-0.24 3.24-1.84 4.27-1.84 1.18 0-4.28-2.75-7.26-10.2-11-9.33-4.71-16.7-5.29-20-1.57-0.995 1.11-2.12 3.14-2.5 4.51-0.531 1.9-1.39 2.9-3.63 4.26-6.5 3.93-9.21 11.8-10.5 30.7-0.499 7.18-3.03 18-4.63 19.8-1.82 2.01-15.3 8.29-20.8 9.71-6.79 1.74-19.7 1.79-25.6 0.106zm3.1-147c-3.95-1.01-18.8-12.4-20.6-15.8-1.89-3.57-1.59-6.33 0.954-8.76 4.91-4.69 13.5-11.2 16.7-12.7 3.04-1.41 4.18-1.59 8.52-1.34 4.35 0.253 5.8 0.692 11 3.33 3.31 1.67 8.39 3.96 11.3 5.08 7.97 3.07 10.5 6.35 9.11 11.6-1.07 3.89-4.64 7.03-12.5 11.1-4.03 2.06-8.96 4.59-10.9 5.62-3.91 2.03-9.87 2.87-13.6 1.92zm14.1-4.73c2.81-1.49 7.62-3.96 10.7-5.47 13.1-6.47 14.1-13.7 2.54-17.9-2.3-0.845-7.25-3.06-11-4.91-6.4-3.17-7.12-3.38-11.8-3.38-5.97 0-6.79 0.416-16.7 8.49-4.04 3.3-7.13 6.33-7.35 7.21-0.57 2.27 1.3 5.26 5.15 8.23 1.88 1.46 5.05 3.92 7.03 5.48 5.43 4.27 7.01 4.93 11.9 4.96 3.91 0.0234 4.94-0.268 9.5-2.69zm-15.9-4.41c-5.53-1.46-15.4-8.64-15.4-11.2 0-0.845 1.1-0.103 3.87 2.6 9.65 9.44 19.1 9.99 32.6 1.88 2-1.21 5.15-3.48 7-5.06 2.23-1.9 3.45-2.57 3.64-2 0.611 1.83-9.62 8.86-17.1 11.8-5.36 2.07-11.3 2.89-14.6 2.02zm-1.64-22.6c0-0.558 0.751-1.2 1.67-1.43 3.11-0.78 2.93 1.06-0.194 2-1.09 0.328-1.47 0.178-1.47-0.569zm12.6 0.126c-1.7-0.82-1.95-1.82-0.448-1.82 1.39 0 3.56 1.21 3.56 1.99 0 0.806-1.23 0.74-3.11-0.168zm-25.6 1.29c-5.32-6.64-5.21-19 0.207-24.4 5.93-5.93 14.2 0.262 15.2 11.4l0.359 3.96-2.36 0.987c-1.3 0.543-2.48 0.987-2.63 0.987-0.146 0-0.461-1.23-0.701-2.72-0.564-3.53-2.29-6.41-4.11-6.86-1.92-0.481-2.78 0.135-3.88 2.77-1.26 3.01-1.13 5.97 0.421 9.38 1.23 2.7 1.24 2.96 0.212 4.09-1.29 1.43-1.81 1.5-2.7 0.393zm44.9-0.613-3.08-1.33 1.34-1.82c1.82-2.46 1.87-8.91 0.0978-12-1.54-2.64-4.07-3.66-6.42-2.59-2.08 0.948-4.22 5.42-4.24 8.87-0.0122 2.14-0.192 2.46-1.16 2.08-0.631-0.244-1.95-0.606-2.93-0.804-2.78-0.562-3.36-1.73-2.88-5.83 1.07-9.12 6.35-15.3 13-15.3 8.18-0.0064 13.7 6.88 13.8 17.4 0.0678 4.52-0.177 5.76-1.77 9.01-1.02 2.07-2.05 3.74-2.29 3.71-0.244-0.0292-1.83-0.65-3.52-1.38z" fill="#fff" stroke-width=".655"/></svg>
